<?xml version="1.0" ?><!DOCTYPE svg  PUBLIC '-//W3C//DTD SVG 1.1//EN'  'http://www.w3.org/Graphics/SVG/1.1/DTD/svg11.dtd'><svg height="512px" style="enable-background:new 0 0 512 512;" version="1.1" viewBox="0 0 512 512" width="512px" xml:space="preserve" xmlns="http://www.w3.org/2000/svg" xmlns:xlink="http://www.w3.org/1999/xlink"><g id="_x39_85_x2C__Culture_x2C__global_x2C__india_x2C__indian_x2C__palm_tree_x2C__srilanka_x2C__tree"><g id="XMLID_691_"><path d="M233.47,185.853c-0.2,0.068-20.224,7.045-41.258,23.898c-23.531,18.855-38.895,41.912-45.822,68.699    c15.244-27.171,40.302-48.147,70.351-58.065c3.566-1.178,7.289-2.215,11.064-3.086c0.001,0,0.002-0.001,0.002-0.001    c4.276-0.986,8.621-1.752,12.967-2.286c1.448-0.179,2.897-0.331,4.344-0.457c3.75-0.327,7.476-0.493,11.075-0.493    c7.997,0,16.071,0.776,23.997,2.309c40.103,7.75,73.622,34.438,90.396,71.061c1.397-7.259,2.102-14.653,2.102-22.111    c0-33.334-14.332-65.138-39.322-87.257c-0.68-0.603-1.367-1.194-2.059-1.779c-0.423-0.357-0.854-0.707-1.281-1.059    c-0.259-0.212-0.514-0.427-0.773-0.637c-0.615-0.496-1.237-0.984-1.861-1.467c-0.065-0.051-0.13-0.103-0.195-0.153    c-13.211-10.167-28.38-17.324-44.472-21.084c-0.195-0.046-0.392-0.092-0.587-0.137c-0.733-0.167-1.469-0.329-2.206-0.482    c-0.264-0.055-0.529-0.104-0.794-0.157c-1.09-0.219-2.185-0.421-3.282-0.608c-0.573-0.097-1.146-0.194-1.722-0.283    c-0.464-0.072-0.929-0.141-1.395-0.207c-0.825-0.118-1.651-0.228-2.479-0.328c-0.225-0.026-0.447-0.059-0.672-0.084    c-1.062-0.122-2.126-0.225-3.191-0.317c-0.125-0.001-0.249,0.007-0.375-0.004c-2.091-0.182-4.177-0.302-6.242-0.374    c-1.059-0.033-2.116-0.063-3.157-0.067c-0.204-0.002-0.411-0.007-0.615-0.007l-0.712,0.008c-0.004,0-0.008,0-0.017,0l-0.007,0.001    c-0.029-0.001-0.098,0.001-0.102,0.001c-0.013,0-0.013,0-0.018,0c-0.696,0.007-1.417,0.019-2.136,0.038    c-0.029,0.001-0.06,0.002-0.089,0.003c-1.063,0.03-2.122,0.078-3.176,0.136c-0.174,0.01-0.347,0.019-0.521,0.028    c-1.096,0.064-2.184,0.141-3.254,0.233c-59.596,5.177-106.279,56.149-106.279,116.044c0,0.966,0.013,1.93,0.037,2.894    c10.29-31.256,30.291-52.684,46.917-65.948c22.279-17.776,42.938-24.937,43.807-25.231c2.436-0.832,5.083,0.47,5.914,2.906    C237.203,182.374,235.903,185.021,233.47,185.853z" id="XMLID_692_"/><path d="M217.214,113.406c0.066,0.013,0.129,0.027,0.195,0.041c1.053,0.204,2.086,0.419,3.085,0.646    c1.062,0.242,2.115,0.506,3.164,0.779c0.224,0.059,0.445,0.118,0.669,0.178c10.17,2.728,19.715,6.956,28.492,12.622    c0.212,0.137,0.423,0.273,0.634,0.411c0.808,0.53,1.61,1.068,2.403,1.622c0.048,0.033,0.097,0.064,0.145,0.098    c0.121-0.085,0.245-0.163,0.367-0.247c0.879-0.609,1.762-1.208,2.657-1.787c0.047-0.031,0.094-0.063,0.14-0.094    c0.937-0.604,1.885-1.187,2.839-1.758c0.222-0.133,0.445-0.266,0.668-0.397c0.955-0.563,1.917-1.112,2.89-1.643    c0.085-0.046,0.171-0.09,0.256-0.136c0.913-0.495,1.836-0.972,2.764-1.438c0.217-0.108,0.434-0.218,0.65-0.325    c0.989-0.486,1.984-0.959,2.988-1.413c0.16-0.071,0.321-0.141,0.481-0.212c0.908-0.405,1.824-0.795,2.745-1.174    c0.195-0.08,0.391-0.162,0.587-0.241c1.023-0.413,2.056-0.81,3.096-1.188c0.205-0.075,0.41-0.146,0.616-0.22    c0.951-0.341,1.907-0.668,2.871-0.98c0.106-0.035,0.211-0.074,0.317-0.108C264.604,74.291,222.28,46.31,176.045,46.31    c-7.456,0-14.85,0.704-22.104,2.1C182.277,61.374,204.832,84.402,217.214,113.406z" id="XMLID_693_"/><path d="M173.592,170.092c13.592-11.737,29.794-20.565,46.952-25.567c7.504-2.188,15.202-3.651,22.997-4.409    c1.52-1.475,3.089-2.909,4.711-4.295c-0.271-0.178-0.54-0.357-0.813-0.531c-8.843-5.639-18.641-9.746-29.015-12.109    c-1.705-0.388-3.441-0.729-5.31-1.042c-5.015-0.84-10.12-1.266-15.176-1.266c-43.103,0-79.898,29.395-89.483,71.481    c-1.087,4.774-1.791,9.601-2.11,14.445C122.969,186.417,147.17,173.049,173.592,170.092z" id="XMLID_694_"/><path d="M403.543,192.354c-9.585-42.091-46.383-71.487-89.484-71.487c-6.85,0-13.741,0.778-20.484,2.313    c-1.068,0.244-2.127,0.507-3.179,0.785v0.001c-1.332,0.353-2.648,0.739-3.955,1.148c-0.409,0.128-0.813,0.269-1.221,0.402    c-0.897,0.294-1.792,0.598-2.678,0.919c-0.468,0.17-0.934,0.346-1.398,0.523c-0.831,0.316-1.657,0.646-2.478,0.986    c-0.458,0.189-0.915,0.379-1.369,0.575c-0.87,0.379-1.733,0.775-2.591,1.18c-0.376,0.178-0.754,0.347-1.127,0.529    c-1.215,0.593-2.419,1.209-3.605,1.856c-0.145,0.079-0.285,0.166-0.43,0.246c-1.043,0.576-2.076,1.173-3.097,1.791    c-0.39,0.235-0.773,0.483-1.16,0.725c-0.509,0.319-1.013,0.648-1.516,0.978c0.076,0.065,0.149,0.134,0.225,0.199    c0.083,0.07,0.167,0.139,0.249,0.21c0.02,0.016,0.038,0.03,0.057,0.047c0.383,0.332,0.757,0.676,1.136,1.014    c0.372,0.333,0.744,0.665,1.109,1.003c0.147,0.135,0.299,0.268,0.445,0.403c0.271,0.254,0.537,0.516,0.807,0.772    c0.223,0.212,0.452,0.418,0.672,0.632c0.176,0.017,0.351,0.041,0.526,0.059c0.865,0.089,1.729,0.186,2.591,0.292    c0.399,0.049,0.8,0.098,1.198,0.15c0.753,0.1,1.504,0.209,2.255,0.322c0.808,0.122,1.612,0.253,2.417,0.391    c0.554,0.095,1.108,0.188,1.661,0.289c0.692,0.128,1.383,0.267,2.074,0.405c0.327,0.066,0.654,0.133,0.981,0.202    c0.774,0.163,1.549,0.33,2.321,0.508c0.027,0.007,0.055,0.014,0.081,0.02c4.605,1.063,9.149,2.373,13.601,3.948    c11.636,4.121,22.479,9.872,32.372,17.142c0.038,0.028,0.076,0.056,0.114,0.084c0.66,0.485,1.315,0.979,1.966,1.479    c0.164,0.125,0.327,0.251,0.491,0.377c0.537,0.416,1.071,0.838,1.602,1.263c0.268,0.215,0.535,0.429,0.802,0.646    c0.44,0.358,0.879,0.721,1.315,1.087c0.336,0.281,0.672,0.563,1.006,0.849c0.187,0.16,0.377,0.315,0.563,0.476    c26.423,2.957,50.622,16.325,67.246,36.707C405.334,201.955,404.63,197.128,403.543,192.354z" id="XMLID_695_"/><path d="M381.814,456.37h-98.764l-1.698-47.548c-0.78,0.589-1.74,0.95-2.793,0.95h-27.958    c-2.573,0-4.66-2.086-4.66-4.659c0-2.574,2.087-4.66,4.66-4.66h27.958c0.931,0,1.793,0.279,2.521,0.75l-4.354-121.904h-26.125    c-2.573,0-4.66-2.086-4.66-4.66c0-2.573,2.087-4.659,4.66-4.659h25.792l-1.611-45.097c-0.146-0.023-0.294-0.046-0.441-0.069    c-1.382-0.217-2.767-0.416-4.153-0.584c-0.018-0.002-0.034-0.005-0.052-0.007c-1.392-0.168-2.785-0.302-4.179-0.42    c-0.259-0.021-0.519-0.045-0.778-0.065c-1.344-0.104-2.688-0.186-4.031-0.243c-0.257-0.012-0.514-0.02-0.771-0.028    c-1.396-0.051-2.792-0.085-4.185-0.085c-3.33,0-6.784,0.154-10.265,0.458c-1.23,0.107-2.463,0.24-3.695,0.389    c-0.387,0.047-0.773,0.102-1.16,0.151c-0.854,0.112-1.709,0.23-2.563,0.361c-0.442,0.067-0.884,0.139-1.325,0.212    c-0.828,0.136-1.654,0.282-2.479,0.437c-0.418,0.078-0.836,0.153-1.253,0.236c-0.191,0.038-0.381,0.083-0.572,0.122    l-18.209,100.149h26.611c2.573,0,4.659,2.086,4.659,4.66c0,2.573-2.086,4.659-4.659,4.659h-27.959    c-0.117,0-0.227-0.025-0.341-0.034l-15.257,83.91h24.917c2.573,0,4.66,2.086,4.66,4.66s-2.087,4.66-4.66,4.66h-26.611    l-5.083,27.958h-79.402c-2.573,0-4.659,2.086-4.659,4.66s2.086,4.66,4.659,4.66h270.269c2.573,0,4.659-2.086,4.659-4.66    S384.388,456.37,381.814,456.37z" id="XMLID_696_"/></g></g><g id="Layer_1"/></svg>