<?xml version="1.0" ?><svg data-name="Layer 1" id="Layer_1" viewBox="0 0 512 512" xmlns="http://www.w3.org/2000/svg"><title/><path d="M309.4,204.52v46.23a5.24,5.24,0,0,0,10.48,0V204.52a32.8,32.8,0,0,0-32.76-32.76h-5.28a37.36,37.36,0,1,0-51.68,0h-5.28a32.8,32.8,0,0,0-32.76,32.76v46.23a5.24,5.24,0,0,0,10.48,0V204.52a22.3,22.3,0,0,1,22.28-22.27h62.24A22.3,22.3,0,0,1,309.4,204.52Zm-80.27-59.63A26.87,26.87,0,1,1,256,171.76,26.9,26.9,0,0,1,229.13,144.89Z"/><path d="M280.51,204.41v43.75a5.24,5.24,0,0,0,10.48,0V204.41a5.24,5.24,0,1,0-10.48,0Z"/><path d="M231.46,248.16V204.41a5.25,5.25,0,1,0-10.49,0v43.75a5.25,5.25,0,0,0,10.49,0Z"/><path d="M211.27,301.5h-32.2V241.36a34.93,34.93,0,0,0-16.52-29.61,37.36,37.36,0,1,0-37,0A34.93,34.93,0,0,0,109,241.36v74.79a30.12,30.12,0,0,0,30.08,30.08H191v53a5.25,5.25,0,0,0,10.49,0V341a5.25,5.25,0,0,0-5.24-5.25H139.12a19.6,19.6,0,0,1-19.59-19.59V241.36a24.53,24.53,0,0,1,49.06,0v65.38a5.24,5.24,0,0,0,5.24,5.25h37.44a12.32,12.32,0,0,1,12.31,12.3v74.93a5.24,5.24,0,0,0,10.48,0V324.29A22.82,22.82,0,0,0,211.27,301.5Zm-94.07-122a26.87,26.87,0,1,1,26.87,26.87A26.9,26.9,0,0,1,117.2,179.48Z"/><path d="M386.41,211.74a37.35,37.35,0,1,0-37,0,34.93,34.93,0,0,0-16.52,29.61V301.5h-32.2a22.82,22.82,0,0,0-22.79,22.79v74.93a5.24,5.24,0,1,0,10.48,0V324.29A12.32,12.32,0,0,1,300.73,312h37.44a5.24,5.24,0,0,0,5.24-5.25V241.36a24.53,24.53,0,0,1,49.06,0v74.79a19.6,19.6,0,0,1-19.59,19.59H315.71a5.25,5.25,0,0,0-5.24,5.25v58.23a5.25,5.25,0,0,0,10.49,0v-53h51.92A30.12,30.12,0,0,0,403,316.15V241.36A34.93,34.93,0,0,0,386.41,211.74Zm-45.35-32.26a26.87,26.87,0,1,1,26.87,26.87A26.9,26.9,0,0,1,341.06,179.48Z"/></svg>