<?xml version="1.0" standalone="no"?>
<!DOCTYPE svg PUBLIC "-//W3C//DTD SVG 20010904//EN"
 "http://www.w3.org/TR/2001/REC-SVG-20010904/DTD/svg10.dtd">
<svg version="1.0" xmlns="http://www.w3.org/2000/svg"
 width="300.000000pt" height="280.000000pt" viewBox="0 0 300.000000 280.000000"
 preserveAspectRatio="xMidYMid meet">
<metadata>
Created by potrace 1.10, written by Peter Selinger 2001-2011
</metadata>
<g transform="translate(0.000000,280.000000) scale(0.100000,-0.100000)"
fill="#000000" stroke="none">
<path d="M1269 2770 c-585 -93 -1042 -536 -1145 -1110 -23 -126 -23 -354 0
-474 108 -566 551 -1007 1105 -1100 122 -21 350 -21 467 -1 232 41 489 165
676 326 202 175 360 455 425 751 25 117 25 409 0 525 -41 185 -124 378 -228
529 -177 256 -500 464 -834 539 -83 19 -383 28 -466 15z m499 -64 c434 -109
768 -403 927 -815 55 -141 76 -253 82 -426 7 -213 -25 -382 -107 -568 -20 -45
-40 -62 -40 -34 0 41 -79 74 -108 45 -9 -9 -19 -7 -45 7 -31 17 -35 17 -66 0
-32 -16 -35 -16 -68 2 -32 17 -35 17 -64 1 -28 -16 -32 -16 -54 -2 -20 13 -30
14 -60 4 -28 -9 -43 -9 -66 0 -21 9 -36 10 -56 2 -16 -6 -48 -10 -73 -8 -25 2
-53 -1 -64 -6 -12 -7 -22 -6 -29 1 -13 13 -66 14 -87 1 -8 -5 -19 -5 -25 -1
-20 16 -61 19 -84 7 -20 -11 -29 -11 -52 1 -78 39 -141 -62 -81 -129 14 -16
64 -20 97 -7 6 2 24 -2 41 -9 27 -12 36 -11 62 2 25 13 36 14 57 4 20 -9 34
-9 61 1 26 10 39 10 47 2 14 -14 52 -14 78 0 15 7 24 7 34 -1 9 -8 31 -10 57
-6 55 7 54 7 110 1 26 -4 49 -2 52 4 4 6 16 5 32 -4 26 -13 40 -12 80 7 15 7
28 7 42 -1 27 -15 68 -14 92 1 15 10 22 10 32 0 6 -6 25 -12 40 -12 35 0 36
-19 6 -69 -172 -281 -545 -525 -878 -576 -25 -4 -58 -9 -75 -12 -61 -11 -302
-4 -379 11 -356 69 -670 269 -855 546 -165 247 -234 470 -234 755 0 175 16
277 70 428 120 340 339 590 658 749 202 102 372 138 620 133 142 -2 187 -7
273 -29z m-15 -1826 c-4 -5 -19 -10 -33 -13 -24 -4 -24 -4 3 -6 34 -1 36 -21
2 -21 -14 0 -25 -4 -25 -10 0 -5 14 -10 30 -10 17 0 30 -4 30 -10 0 -5 -18
-10 -40 -10 l-40 0 0 44 c0 43 1 45 33 48 37 4 52 -1 40 -12z m187 -26 c0 -24
5 -34 15 -34 11 0 15 11 15 40 0 22 5 40 11 40 6 0 9 -19 7 -47 -3 -46 -4 -48
-33 -48 -29 0 -30 2 -33 48 -2 33 0 47 7 42 6 -3 11 -22 11 -41z m170 25 c0
-5 -12 -10 -27 -10 -21 -1 -23 -2 -8 -6 34 -8 41 -23 12 -23 -15 0 -27 -4 -27
-10 0 -5 11 -10 25 -10 14 0 25 -4 25 -10 0 -5 -16 -10 -35 -10 -35 0 -35 0
-35 44 0 41 2 45 28 48 31 4 42 1 42 -13z m-477 -3 c3 -7 0 -19 -6 -25 -8 -8
-8 -14 1 -23 7 -7 12 -16 12 -20 0 -16 -22 -8 -41 15 l-18 22 -1 -22 c0 -13
-4 -23 -10 -23 -5 0 -10 20 -10 45 0 44 0 45 34 45 20 0 36 -6 39 -14z m238
-3 c13 -15 11 -16 -15 -9 -31 8 -48 -6 -39 -31 6 -16 30 -17 35 -1 2 6 10 8
17 4 18 -12 -6 -36 -35 -36 -32 0 -51 38 -35 69 14 25 53 28 72 4z m356 -10
c-3 -15 -1 -36 4 -45 15 -27 -15 -23 -34 5 l-16 22 0 -22 c-1 -13 -7 -23 -14
-23 -8 0 -11 14 -9 45 4 44 5 45 39 45 33 0 35 -2 30 -27z m123 2 c13 -35 -6
-65 -40 -65 -29 0 -30 1 -30 46 0 45 0 45 31 42 21 -2 34 -10 39 -23z m128 13
c7 -7 12 -21 12 -33 0 -12 -5 -26 -12 -33 -7 -7 -21 -12 -33 -12 -12 0 -26 5
-33 12 -7 7 -12 21 -12 33 0 12 5 26 12 33 7 7 21 12 33 12 12 0 26 -5 33 -12z
m117 2 c4 -6 -6 -10 -22 -11 l-28 -1 28 -10 c40 -14 35 -53 -7 -53 -16 0 -31
6 -34 13 -3 9 3 11 22 6 33 -8 34 3 1 16 -24 9 -32 29 -18 43 10 11 51 8 58
-3z"/>
<path d="M710 2266 c-161 -48 -263 -130 -342 -273 -25 -46 -51 -79 -68 -88
-36 -19 -43 -41 -31 -96 16 -69 14 -99 -7 -99 -19 0 -52 -29 -52 -45 0 -4 11
-23 25 -41 16 -21 25 -46 25 -69 0 -40 20 -94 49 -131 11 -14 23 -39 27 -57
16 -75 96 -177 168 -214 17 -8 58 -35 91 -58 33 -23 83 -50 110 -60 60 -20
270 -46 317 -39 18 3 148 9 288 14 273 9 317 16 505 74 368 115 534 127 742
54 96 -34 113 -34 137 5 18 29 -13 52 -154 115 -199 90 -381 121 -510 88 -43
-11 -82 -15 -115 -11 -81 10 -85 13 -82 48 l3 32 62 1 c35 1 76 8 93 14 23 10
33 10 42 1 19 -19 64 -12 95 14 17 14 43 25 59 25 19 0 38 -9 53 -25 27 -29
65 -32 99 -9 21 15 26 15 62 -2 123 -55 259 30 259 162 0 78 -58 153 -131 172
-43 11 -61 10 -115 -8 -32 -11 -104 -80 -104 -100 0 -23 -18 -7 -35 31 -10 22
-30 49 -43 60 -53 41 -104 14 -146 -80 -29 -64 -49 -81 -40 -32 7 31 -12 75
-44 104 -31 28 -159 36 -199 12 -28 -17 -31 -17 -56 0 -29 18 -59 14 -89 -15
-18 -16 -21 -16 -65 6 -36 19 -63 24 -119 24 -69 0 -74 -2 -93 -29 -15 -20
-21 -45 -21 -80 0 -28 -3 -51 -7 -51 -5 0 -21 28 -38 62 -35 72 -71 104 -109
94 -25 -6 -76 -53 -76 -69 0 -5 -8 -25 -17 -44 -14 -31 -18 -33 -24 -17 -4 10
-8 35 -8 55 -1 37 -19 62 -58 76 -19 7 -20 11 -9 43 9 29 15 35 37 32 15 -2
32 5 44 18 23 25 48 26 83 1 19 -14 38 -18 65 -14 53 7 72 39 72 123 0 136
-101 244 -279 299 -94 29 -224 28 -326 -3z m265 -21 c100 -21 185 -66 239
-126 50 -56 66 -98 66 -174 0 -64 -17 -94 -26 -47 -6 31 -24 45 -24 19 0 -7
-6 -22 -14 -32 -13 -18 -15 -16 -26 25 l-12 45 -20 -25 c-16 -20 -21 -21 -29
-9 -5 7 -9 17 -9 20 0 3 -11 11 -24 17 l-25 11 6 -49 c3 -28 3 -50 -1 -50 -4
0 -23 11 -44 25 -41 28 -52 21 -52 -33 0 -18 -7 -46 -15 -62 l-15 -30 -44 45
c-50 53 -68 58 -59 15 6 -35 -10 -41 -27 -10 -14 27 -62 50 -102 50 -35 0
-128 -29 -128 -40 0 -4 12 -13 28 -21 l27 -13 -35 -4 -34 -4 24 -18 25 -19
-25 -9 c-53 -20 -100 -94 -100 -157 0 -30 30 -82 70 -122 59 -58 227 -131 332
-144 46 -5 92 -10 103 -10 57 -2 386 10 393 15 4 2 60 12 123 20 63 8 150 22
194 31 44 8 89 15 100 15 51 -1 -23 -21 -201 -55 -201 -39 -243 -50 -424 -114
-64 -22 -165 -49 -225 -59 -61 -11 -103 -22 -95 -25 8 -3 104 -11 212 -18 316
-19 677 -1 803 41 l30 10 -35 -5 c-255 -34 -490 -47 -490 -26 0 4 39 11 88 14
100 6 278 36 437 72 78 17 142 25 220 26 96 1 104 2 65 11 -47 10 -242 5 -272
-7 -10 -4 -18 -3 -18 2 0 15 132 56 199 61 127 8 306 -39 508 -136 94 -45 71
-59 -29 -17 -116 49 -166 59 -283 58 -129 -1 -255 -25 -433 -82 -225 -73 -334
-90 -606 -93 -131 -1 -230 -5 -220 -9 31 -13 -39 -10 -171 5 -123 15 -232 47
-242 72 -3 8 -10 14 -15 14 -6 0 -26 14 -45 30 -18 17 -42 30 -52 30 -10 0
-41 24 -68 53 -73 77 -126 189 -61 127 78 -74 90 -70 17 6 -92 95 -112 130
-111 195 1 35 -5 46 -36 75 -38 35 -28 45 18 19 14 -8 28 -14 33 -15 13 0 7
133 -8 175 -8 22 -15 41 -15 43 0 1 13 2 30 2 26 0 33 7 59 60 87 175 212 278
384 315 82 18 128 18 212 0z m-216 -429 c15 -8 33 -22 40 -30 12 -14 9 -16
-17 -16 -19 0 -41 -9 -56 -24 -25 -22 -26 -28 -26 -140 0 -79 5 -128 14 -151
8 -19 13 -35 11 -35 -2 0 -24 9 -49 19 -47 21 -121 89 -131 121 -12 37 14 95
60 138 30 29 46 54 51 78 9 50 51 66 103 40z m143 -43 c21 -19 23 -42 5 -67
-12 -17 -15 -15 -42 19 -27 36 -27 38 -10 51 24 18 25 17 47 -3z m1620 -43
c20 -6 50 -26 67 -46 27 -30 31 -43 31 -89 0 -46 -5 -59 -30 -89 -68 -77 -178
-69 -230 17 -46 76 -7 182 76 207 39 11 44 11 86 0z m-1692 -9 c0 -5 14 -39
32 -76 l31 -67 35 76 35 76 41 0 41 0 -1 -137 -2 -138 -32 -2 -33 -3 6 90 c4
49 5 90 3 90 -2 0 -20 -34 -39 -75 -48 -100 -63 -100 -110 3 l-36 77 -1 -92 0
-93 -30 0 -30 0 0 140 0 140 45 0 c25 0 45 -4 45 -9z m476 -121 c30 -69 58
-131 61 -137 3 -9 -6 -12 -31 -11 -30 1 -37 6 -46 32 -10 30 -12 31 -70 31
-59 0 -60 0 -71 -32 -9 -27 -16 -33 -40 -33 -16 0 -29 3 -29 7 0 6 99 252 107
266 3 4 18 7 34 5 28 -3 34 -12 85 -128z m263 119 c38 -13 51 -35 51 -84 0
-25 -8 -43 -25 -61 l-26 -26 36 -43 c19 -24 35 -46 35 -49 0 -3 -17 -5 -37 -3
-31 2 -42 9 -67 45 -20 29 -37 42 -53 42 -21 0 -23 -5 -23 -45 0 -43 -1 -45
-30 -45 l-30 0 0 140 0 140 69 0 c37 0 82 -5 100 -11z m174 -126 l-2 -138 -30
-2 -31 -3 0 140 0 140 33 0 32 0 -2 -137z m248 108 c25 -30 24 -63 -2 -87
l-20 -18 21 -8 c27 -10 40 -46 28 -81 -14 -38 -30 -44 -125 -48 l-83 -4 0 138
0 139 81 -4 c70 -3 83 -6 100 -27z m258 -54 c19 -45 45 -104 58 -131 12 -28
23 -53 23 -57 0 -4 -14 -7 -31 -7 -25 1 -34 7 -45 33 -12 31 -15 31 -71 30
-54 -2 -58 -4 -70 -32 -9 -24 -18 -30 -42 -31 -17 0 -31 2 -31 6 0 3 26 66 57
139 56 129 59 133 88 133 28 0 32 -5 64 -83z m-976 -201 c27 -20 44 -23 112
-24 67 0 84 3 102 20 l22 20 27 -21 c30 -23 74 -27 104 -9 16 10 23 10 36 -4
15 -15 15 -16 -2 -21 -72 -20 -289 -47 -424 -52 -63 -3 -142 -8 -176 -10 -33
-3 -74 -1 -90 4 -16 5 -57 12 -92 15 -35 3 -75 11 -89 18 -30 15 -42 38 -20
38 8 0 24 9 36 19 18 16 28 18 51 10 20 -7 35 -7 50 1 18 10 26 8 43 -8 18
-17 36 -20 98 -20 65 0 81 4 105 24 37 30 67 30 107 0z m677 -144 c0 -4 -39
-16 -87 -25 -49 -10 -128 -27 -178 -37 -178 -39 -395 -68 -395 -53 0 11 170
68 295 99 71 18 120 23 228 23 75 1 137 -3 137 -7z m-680 -121 c15 -29 13 -31
-32 -31 -65 0 -77 14 -31 33 49 21 50 21 63 -2z"/>
<path d="M757 2220 c-87 -22 -179 -84 -247 -166 -54 -66 -50 -75 9 -22 104 94
260 143 381 120 84 -15 175 -60 238 -116 57 -50 68 -56 53 -28 -28 53 -140
131 -241 168 -27 9 -30 13 -13 13 32 1 122 -34 173 -69 25 -16 56 -37 70 -46
14 -9 2 6 -27 34 -95 92 -275 142 -396 112z"/>
<path d="M668 2065 c-81 -20 -128 -46 -175 -98 -39 -42 -89 -124 -81 -133 3
-2 33 25 69 60 106 103 227 135 388 102 46 -10 85 -15 87 -13 8 7 -82 38 -153
52 l-68 13 65 1 c45 0 86 -7 134 -24 81 -28 71 -8 -12 25 -71 27 -181 34 -254
15z"/>
<path d="M618 1921 c-104 -33 -184 -93 -207 -154 -6 -16 -11 -47 -10 -70 l0
-42 15 38 c27 74 127 166 239 218 68 31 48 37 -37 10z"/>
<path d="M390 1841 c-19 -37 -41 -153 -41 -221 0 -70 13 -135 37 -181 19 -38
110 -135 148 -158 54 -34 189 -61 326 -66 135 -4 141 -6 -103 25 -42 5 -90 16
-107 25 -66 34 -210 149 -210 167 0 5 17 -4 38 -20 46 -36 104 -72 117 -72 5
0 -8 12 -30 26 -95 63 -129 115 -145 225 l-8 54 -1 -52 c0 -28 -5 -54 -10 -57
-24 -15 -29 189 -7 272 15 55 14 65 -4 33z"/>
<path d="M502 1767 c-47 -50 -77 -158 -54 -195 5 -8 13 11 20 50 6 35 23 85
37 112 29 55 28 66 -3 33z"/>
<path d="M1055 1288 c-27 -5 -100 -8 -162 -6 -108 3 -139 -3 -90 -16 60 -16
327 4 327 25 0 10 -7 10 -75 -3z"/>
<path d="M1175 1280 c-27 -5 -86 -17 -130 -28 l-80 -20 50 -1 c53 -1 213 31
243 48 15 9 13 10 -8 9 -14 0 -47 -4 -75 -8z"/>
<path d="M605 1219 c39 -18 75 -25 61 -12 -8 8 -78 33 -91 32 -5 0 8 -9 30
-20z"/>
<path d="M2425 1654 c-52 -56 -16 -144 59 -144 25 0 40 7 55 26 67 85 -42 196
-114 118z m79 -30 c22 -22 20 -51 -5 -64 -16 -9 -25 -8 -40 6 -23 21 -24 32
-2 56 20 22 27 22 47 2z"/>
<path d="M1201 1609 c-6 -18 -11 -34 -11 -35 0 -2 14 -4 31 -4 26 0 30 3 24
18 -4 9 -10 25 -12 35 -8 26 -20 21 -32 -14z"/>
<path d="M1460 1636 l0 -45 38 5 c57 8 62 12 62 38 0 29 -25 46 -69 46 -30 0
-31 -2 -31 -44z"/>
<path d="M1870 1650 c0 -28 3 -30 35 -30 23 0 38 6 41 15 9 23 -15 45 -47 45
-26 0 -29 -4 -29 -30z"/>
<path d="M1870 1540 c0 -30 1 -31 43 -28 37 3 42 6 42 28 0 22 -5 25 -42 28
-42 3 -43 2 -43 -28z"/>
<path d="M2167 1610 l-15 -40 33 0 34 0 -16 38 c-8 20 -16 38 -17 40 -2 1 -10
-16 -19 -38z"/>
<path d="M379 901 c-24 -25 -28 -35 -23 -63 11 -58 55 -89 91 -63 13 10 23 10
38 2 23 -12 69 -11 96 3 12 7 20 7 24 0 3 -5 28 -10 55 -10 27 0 52 5 55 10 4
7 12 7 25 0 25 -13 83 -13 97 1 7 7 17 8 30 1 10 -6 36 -8 58 -6 22 2 47 3 55
3 8 0 60 -1 115 -2 55 -2 106 1 113 7 8 6 17 5 24 -2 16 -16 63 -15 88 0 16
10 24 10 40 0 34 -21 76 -15 99 14 27 34 27 64 0 98 -22 28 -64 35 -100 16
-13 -8 -25 -7 -41 2 -33 18 -48 18 -78 3 -17 -9 -31 -10 -41 -4 -19 12 -89 11
-89 -1 0 -5 -9 -10 -19 -10 -11 0 -23 5 -26 10 -8 12 -55 13 -55 1 0 -19 -33
-20 -57 -1 -31 24 -51 25 -80 5 -18 -13 -24 -13 -53 1 -22 12 -38 14 -53 7
-25 -10 -179 -9 -220 2 -19 5 -35 2 -53 -10 -16 -10 -30 -13 -37 -7 -31 23
-49 22 -78 -7z m771 -33 l20 -33 0 27 c0 15 5 30 10 33 6 4 10 -13 10 -44 0
-56 -9 -63 -33 -28 l-16 22 0 -22 c-2 -47 -21 -21 -21 27 0 28 2 50 5 50 3 0
14 -15 25 -32z m-700 12 c0 -5 -10 -10 -22 -10 -23 0 -22 -1 2 -13 14 -7 25
-21 25 -32 0 -16 -7 -20 -34 -20 -19 0 -36 6 -38 12 -3 9 5 11 29 7 l33 -6
-32 21 c-39 25 -35 51 8 51 16 0 29 -4 29 -10z m120 0 c0 -5 -12 -11 -27 -11
l-28 -2 28 -4 c34 -5 36 -23 2 -23 -14 0 -25 -4 -25 -10 0 -5 11 -10 25 -10
14 0 25 -4 25 -10 0 -5 -16 -10 -35 -10 -35 0 -35 0 -35 45 0 45 0 45 35 45
19 0 35 -4 35 -10z m80 -9 c0 -11 5 -23 10 -26 6 -4 10 5 10 19 0 19 5 26 20
26 17 0 20 -7 20 -45 0 -48 -19 -64 -21 -17 l-1 27 -10 -27 c-12 -34 -27 -36
-29 -5 l-2 22 -4 -22 c-8 -42 -29 -26 -28 22 0 36 3 45 18 45 10 0 17 -8 17
-19z m175 -26 c0 -39 -1 -40 -37 -43 l-38 -3 0 46 0 46 38 -3 c36 -3 37 -4 37
-43z m118 11 c-1 -17 3 -36 9 -43 8 -10 7 -13 -5 -13 -8 0 -22 10 -30 23 l-16
22 0 -22 c-1 -13 -7 -23 -15 -23 -10 0 -14 13 -14 46 l1 45 36 -3 c33 -3 36
-5 34 -32z m124 -9 c18 -44 13 -53 -17 -35 -18 10 -24 10 -27 1 -3 -7 -12 -13
-20 -13 -10 0 -13 5 -8 18 4 9 12 30 17 45 14 38 37 31 55 -16z m249 16 c9
-35 -7 -57 -45 -61 -31 -3 -31 -3 -31 42 0 46 0 46 35 46 29 0 36 -4 41 -27z
m122 15 c7 -7 12 -21 12 -33 0 -12 -5 -26 -12 -33 -7 -7 -21 -12 -33 -12 -12
0 -26 5 -33 12 -7 7 -12 21 -12 33 0 12 5 26 12 33 7 7 21 12 33 12 12 0 26
-5 33 -12z"/>
<path d="M1260 845 c0 -20 4 -26 18 -23 9 2 17 12 17 23 0 11 -8 21 -17 23
-14 3 -18 -3 -18 -23z"/>
<path d="M1384 855 c-4 -9 -2 -21 4 -27 15 -15 44 -1 40 19 -4 23 -36 29 -44
8z"/>
<path d="M2300 845 c0 -16 6 -25 15 -25 9 0 15 9 15 25 0 16 -6 25 -15 25 -9
0 -15 -9 -15 -25z"/>
<path d="M2424 855 c-7 -18 3 -35 21 -35 15 0 28 27 19 41 -8 14 -34 11 -40
-6z"/>
</g>
</svg>
